<svg xmlns="http://www.w3.org/2000/svg" xmlns:xlink="http://www.w3.org/1999/xlink" viewBox="0 0 90 90"><defs><style>      .cls-1 {        fill: #fff;        stroke: #707070;      }      .cls-2 {        fill: url(#linear-gradient);      }      .cls-3 {        clip-path: url(#clip-path);      }      .cls-4 {        fill: url(#linear-gradient-7);      }      .cls-5 {        fill: none;      }    </style><linearGradient id="linear-gradient" y1="-0.562" x2="0" y2="1.794" gradientUnits="objectBoundingBox"><stop offset="0" stop-color="#ffd200"></stop><stop offset="1" stop-color="#ff2e3a"></stop></linearGradient><clipPath id="clip-path"><rect id="Rectangle_1376" data-name="Rectangle 1376" class="cls-1" width="47" height="60" transform="translate(311 1350)"></rect></clipPath><linearGradient id="linear-gradient-7" x1="0.5" y1="0" x2="0.5" y2="1" xlink:href="#linear-gradient"></linearGradient></defs><g id="f4-color-games" transform="translate(-2468 -190)"><g id="Group_2835" data-name="Group 2835" transform="translate(139 -175.611)"><g id="Group_2831" data-name="Group 2831" transform="translate(2332 367.611)"><g id="Group_233" data-name="Group 233" transform="translate(79.177 41.74)"><path id="Path_208" data-name="Path 208" class="cls-2" d="M36,33.617l.677-2.031,2.031.677-.677,2.031ZM37.8,27.3l.226-2.256,2.256.451-.451,2.256Zm.677-6.543V18.5h2.256v2.256Z" transform="translate(-36 -18.5)"></path></g><g id="Group_1477" data-name="Group 1477"><g id="Group_229" data-name="Group 229" transform="translate(0 12.635)"><path id="Path_204" data-name="Path 204" class="cls-2" d="M12.635,66.292A46.544,46.544,0,0,1,3.384,52.755,43.573,43.573,0,0,1,0,35.833a41.676,41.676,0,0,1,3.384-16.7A40.177,40.177,0,0,1,12.635,5.6l1.579,1.579a40.852,40.852,0,0,0-8.8,12.86A41.969,41.969,0,0,0,2.256,35.833,41.969,41.969,0,0,0,5.415,51.627a38.457,38.457,0,0,0,8.8,12.86Z" transform="translate(0 -5.6)"></path></g><g id="Group_230" data-name="Group 230" transform="translate(58.662 60.692)"><path id="Path_205" data-name="Path 205" class="cls-2" d="M26.9,48.56,26,46.529a38.457,38.457,0,0,0,12.86-8.8A36.4,36.4,0,0,0,46.532,26.9l2.031.9A40.963,40.963,0,0,1,40.44,39.309,37.178,37.178,0,0,1,26.9,48.56Z" transform="translate(-26 -26.9)"></path></g><g id="Group_231" data-name="Group 231" transform="translate(44.899)"><path id="Path_206" data-name="Path 206" class="cls-2" d="M55.323,27.075a38.457,38.457,0,0,0-8.8-12.86,40.852,40.852,0,0,0-12.86-8.8A40.828,40.828,0,0,0,19.9,2.256V0A39.762,39.762,0,0,1,34.34,3.384a40.177,40.177,0,0,1,13.537,9.251,46.544,46.544,0,0,1,9.251,13.537Z" transform="translate(-19.9 0)"></path></g><g id="Group_232" data-name="Group 232" transform="translate(16.245 74.681)"><path id="Path_207" data-name="Path 207" class="cls-2" d="M32.7,44.381V42.125h2.256v2.256H32.7ZM27.055,43.7l-1.128-.226.451-2.256,2.256.451-.226,2.256C27.055,43.7,28.183,43.93,27.055,43.7Zm-6.769-1.579-1.128-.451.677-2.256,2.031.677-.677,2.256A5.119,5.119,0,0,0,20.286,42.125Zm-6.543-2.707-.9-.451,1.128-2.031L16,38.064l-1.128,2.031C13.743,39.417,14.871,39.869,13.743,39.417ZM8.1,35.582h0L7.2,34.9l1.354-1.8,1.8,1.354L9,36.259Z" transform="translate(-7.2 -33.1)"></path></g><g id="Group_234" data-name="Group 234" transform="translate(25.27)"><path id="Path_209" data-name="Path 209" class="cls-2" d="M11.2,3.836l2.031-.9.9,2.031-2.031.9Zm6.543-2.482L20,.9l.451,2.256-2.256.451ZM24.512.226,26.768,0l.226,2.256-2.256.226Z" transform="translate(-11.2)"></path></g></g></g><g id="Mask_Group_222" data-name="Mask Group 222" class="cls-3" transform="translate(2041 -972)"><path id="Union_1" data-name="Union 1" class="cls-4" d="M3206.072-14162.547l-.054-.054-6.13-8.044h-11.051l-6.238,8.044a6.673,6.673,0,0,1-5.034,2.354,6.321,6.321,0,0,1-3.667-1.15l1.207-1.807a4.356,4.356,0,0,0,2.46.768,4.371,4.371,0,0,0,3.339-1.531l6.837-8.865h13.243l6.73,8.865a4.259,4.259,0,0,0,3.281,1.531,4.408,4.408,0,0,0,4.377-4.049v-15.978a7.8,7.8,0,0,0-7.769-7.166,7.65,7.65,0,0,0-7,4.1l-.329.6H3188.18l-.329-.6a7.783,7.783,0,0,0-6.895-4.16,7.822,7.822,0,0,0-7.77,6.948v14.5H3171l.057-14.664a9.973,9.973,0,0,1,9.958-8.973,9.967,9.967,0,0,1,8.48,4.7h3.938v-8.751h20.355a2.059,2.059,0,0,0,2.024-2.024,2.019,2.019,0,0,0-2.024-2.025v-2.188a4.216,4.216,0,0,1,4.213,4.214,4.213,4.213,0,0,1-4.213,4.209h-18.167v6.566h3.338a9.824,9.824,0,0,1,8.591-4.7,10.014,10.014,0,0,1,9.958,9.244v16.2a6.415,6.415,0,0,1-6.456,6.185A6.5,6.5,0,0,1,3206.072-14162.547Zm-4-16.2a5.4,5.4,0,0,1,5.416-5.417,5.4,5.4,0,0,1,5.42,5.417,5.433,5.433,0,0,1-5.42,5.42A5.4,5.4,0,0,1,3202.077-14178.742Zm2.189,0a3.2,3.2,0,0,0,3.228,3.23,3.2,3.2,0,0,0,3.231-3.23,3.237,3.237,0,0,0-3.231-3.229A3.2,3.2,0,0,0,3204.266-14178.742Zm-24.073,3.885v-2.789h-2.846v-2.188h2.846v-2.846h2.189v2.846h2.789v2.188h-2.789v2.789Zm16.2-2.789v-2.188h1.968v2.188Zm-5.855,0v-2.188h1.971v2.188Zm-5.856-22.323v-2.188h29.053v2.188Zm-4.6-4.6V-14227h2.189v22.434a2.429,2.429,0,0,0,2.406,2.41v2.188A4.625,4.625,0,0,1,3180.083-14204.568Z" transform="translate(-2860 15568.248)"></path></g></g><rect id="Rectangle_1377" data-name="Rectangle 1377" class="cls-5" width="90" height="90" transform="translate(2468 190)"></rect></g></svg>