<svg xmlns="http://www.w3.org/2000/svg" xmlns:xlink="http://www.w3.org/1999/xlink" viewBox="0 0 90 90"><defs><style>      .cls-1 {        fill: none;      }      .cls-2 {        fill: url(#linear-gradient);      }    </style><linearGradient id="linear-gradient" x2="0.776" y2="0.855" gradientUnits="objectBoundingBox"><stop offset="0" stop-color="#ffd200"></stop><stop offset="1" stop-color="#ff2e3a"></stop></linearGradient></defs><g id="f6-1-color" transform="translate(-5141 -1918)"><rect id="Rectangle_1379" data-name="Rectangle 1379" class="cls-1" width="90" height="90" transform="translate(5141 1918)"></rect><path id="Union_39" data-name="Union 39" class="cls-2" d="M-8514.844-2113.654a42.983,42.983,0,0,1-4.6-.452,1.149,1.149,0,0,1-.973-1.318,1.145,1.145,0,0,1,1.318-.973,42.669,42.669,0,0,0,4.365.43,1.151,1.151,0,0,1,1.1,1.2,1.147,1.147,0,0,1-1.144,1.112Zm10.116-1.864a1.154,1.154,0,0,1,.883-1.377c1.412-.313,2.833-.7,4.223-1.156a1.159,1.159,0,0,1,1.461.73,1.161,1.161,0,0,1-.73,1.457,43.5,43.5,0,0,1-4.468,1.228.493.493,0,0,1-.234.036A1.174,1.174,0,0,1-8504.728-2115.519Zm-25.8-1.793a42.25,42.25,0,0,1-4.133-2.081,1.155,1.155,0,0,1-.427-1.586,1.153,1.153,0,0,1,1.584-.43c1.263.718,2.582,1.39,3.913,1.981a1.142,1.142,0,0,1,.591,1.525,1.176,1.176,0,0,1-1.067.685A1.305,1.305,0,0,1-8530.527-2117.312Zm40.434-3.922a1.169,1.169,0,0,1,.323-1.609,41.889,41.889,0,0,0,3.52-2.6,1.165,1.165,0,0,1,1.631.148,1.171,1.171,0,0,1-.151,1.635,44.925,44.925,0,0,1-3.716,2.753,1.247,1.247,0,0,1-.649.2A1.144,1.144,0,0,1-8490.094-2121.234Zm-22.549-3.312-16.6-4.954a4.2,4.2,0,0,1-2.986-4.006v-3.722l-5.958,2.381a1.011,1.011,0,0,1-.42.09,1.085,1.085,0,0,1-.472-.1,1.123,1.123,0,0,1-.614-.669l-17.238-48.118a1.15,1.15,0,0,1,.049-.892,1.153,1.153,0,0,1,.66-.591l30.882-10.776a1.157,1.157,0,0,1,.9.058,1.183,1.183,0,0,1,.591.682l4.2,13.128v-17.8a1.165,1.165,0,0,1,1.16-1.16h35.2a1.163,1.163,0,0,1,1.158,1.16v50.283a1.17,1.17,0,0,1-1.17,1.157h-13.564v9.444a4.172,4.172,0,0,1-1.229,2.954l-10.417,10.417a4.154,4.154,0,0,1-1.32.886,1.147,1.147,0,0,1-.764.284,1.137,1.137,0,0,1-.169-.013,4.152,4.152,0,0,1-.687.058A4.207,4.207,0,0,1-8512.643-2124.546Zm-17.271-8.947a1.863,1.863,0,0,0,1.331,1.784l16.6,4.953a1.872,1.872,0,0,0,.233.053v-14.962c0-3.958-1.945-4.607-2.026-4.63l-16.136-4.71Zm16.759-15.038c.107.026,3.707,1,3.707,6.854v13.765l9.723-9.723a1.875,1.875,0,0,0,.542-1.309v-16.8l-6.284,6.288a1.161,1.161,0,0,1-.811.336,1.186,1.186,0,0,1-.822-.336,1.151,1.151,0,0,1,0-1.632l6.747-6.75a1.172,1.172,0,0,1,.134-.115,1.793,1.793,0,0,0-.295-.115l-15.675-4.643a1.611,1.611,0,0,0-.528-.081,1.823,1.823,0,0,0-1.193.439l-10.976,9.236Zm-41.205-34.805,16.436,45.895,5.693-2.281v-11.665a3.95,3.95,0,0,1,.256-1.425,4.226,4.226,0,0,1,1.237-1.771l.251-.212-8.826-6.791a1.141,1.141,0,0,1-.439-1.056l2.151-17.235a1.16,1.16,0,0,1,.743-.937,1.168,1.168,0,0,1,1.18.22l12.928,11.5a1.129,1.129,0,0,1,.371,1.053l-1.267,7.492,4.239-3.569a4.2,4.2,0,0,1,2.742-.98l-9.036-28.236Zm69.9,32.618v-47.966h-32.872v23.29a1.11,1.11,0,0,1-.068.387l3.366,10.518,14.18,4.2a4.2,4.2,0,0,1,2.988,4v5.567Zm-52.909-12.292,8.692,6.692,2.295-1.932,1.617-9.551-10.8-9.609Zm-6.484,36.612a44.05,44.05,0,0,1-3.112-3.425,1.16,1.16,0,0,1,.162-1.632,1.16,1.16,0,0,1,1.635.162,39.593,39.593,0,0,0,2.951,3.25,1.155,1.155,0,0,1,0,1.635,1.067,1.067,0,0,1-.812.346A1.219,1.219,0,0,1-8543.853-2126.4Zm28.022-4.747a1.16,1.16,0,0,1-1.156-1.156,1.16,1.16,0,0,1,1.156-1.157h1.484a1.16,1.16,0,0,1,1.156,1.157,1.151,1.151,0,0,1-1.156,1.156Zm37.311-.694a1.154,1.154,0,0,1-.268-1.609,41.436,41.436,0,0,0,2.361-3.693,1.157,1.157,0,0,1,1.573-.437,1.155,1.155,0,0,1,.439,1.574,46.075,46.075,0,0,1-2.484,3.9,1.15,1.15,0,0,1-.949.485A1.129,1.129,0,0,1-8478.52-2131.839Zm-42.331-5.765a1.16,1.16,0,0,1-1.156-1.157,1.16,1.16,0,0,1,1.156-1.157h1.482a1.16,1.16,0,0,1,1.158,1.157,1.16,1.16,0,0,1-1.158,1.157Zm-32.169-2.036c-.623-1.4-1.188-2.85-1.677-4.316a1.154,1.154,0,0,1,.739-1.46,1.162,1.162,0,0,1,1.461.743,38.468,38.468,0,0,0,1.584,4.084,1.153,1.153,0,0,1-.579,1.528,1.238,1.238,0,0,1-.475.1A1.154,1.154,0,0,1-8553.02-2139.639Zm48.248-.846a1.16,1.16,0,0,1-1.158-1.157,1.16,1.16,0,0,1,1.158-1.157h1.482a1.162,1.162,0,0,1,1.156,1.157,1.153,1.153,0,0,1-1.156,1.157Zm-20.4-2.869a1.159,1.159,0,0,1-1.156-1.157,1.162,1.162,0,0,1,1.156-1.16h1.479a1.165,1.165,0,0,1,1.16,1.16,1.152,1.152,0,0,1-1.147,1.157Zm53.662-2.514a1.159,1.159,0,0,1-.833-1.412c.358-1.412.649-2.856.869-4.294a1.137,1.137,0,0,1,1.3-.982,1.16,1.16,0,0,1,.986,1.309,43.994,43.994,0,0,1-.915,4.537,1.167,1.167,0,0,1-1.124.879A1.212,1.212,0,0,1-8471.5-2145.869Zm-39.287-8.262a1.163,1.163,0,0,1-1.156-1.16,1.16,1.16,0,0,1,1.156-1.157h1.48a1.16,1.16,0,0,1,1.159,1.157,1.163,1.163,0,0,1-1.159,1.16Zm-7.906,0a1.162,1.162,0,0,1-1.157-1.16,1.159,1.159,0,0,1,1.157-1.157h1.482a1.16,1.16,0,0,1,1.157,1.157,1.163,1.163,0,0,1-1.157,1.16Zm-36.971-.081a1.157,1.157,0,0,1-1.156-1.1c-.046-.785-.059-1.574-.059-2.372a1.16,1.16,0,0,1,1.156-1.156,1.163,1.163,0,0,1,1.161,1.156c0,.753.021,1.506.054,2.256a1.153,1.153,0,0,1-1.1,1.218Zm64.985-1.357a1.161,1.161,0,0,1-1.161-1.157,1.161,1.161,0,0,1,1.161-1.157h1.4a1.16,1.16,0,0,1,1.156,1.157,1.16,1.16,0,0,1-1.156,1.157Zm20.52-5.926a1.164,1.164,0,0,1-1.147-1.017,40.5,40.5,0,0,0-.727-4.33,1.153,1.153,0,0,1,.88-1.376,1.156,1.156,0,0,1,1.38.879c.332,1.506.591,3.034.771,4.559a1.162,1.162,0,0,1-1.018,1.286Zm-31.125-2.985-9.853-8.324a.847.847,0,0,1-.125-.126,8.372,8.372,0,0,1-2.653-6.091,8.356,8.356,0,0,1,8.346-8.343,8.332,8.332,0,0,1,4.667,1.435,8.361,8.361,0,0,1,4.665-1.435,8.356,8.356,0,0,1,8.346,8.343,8.36,8.36,0,0,1-2.652,6.091c-.032.036-.059.068-.091.1l-9.134,8.323a1.107,1.107,0,0,1-.763.3A1.167,1.167,0,0,1-8501.289-2164.479Zm-10.313-14.541a6.07,6.07,0,0,0,1.989,4.469.157.157,0,0,1,.081.071l.175.148,8.785,7.422,8.275-7.548a.89.89,0,0,1,.094-.094,6.053,6.053,0,0,0,1.991-4.469,6.032,6.032,0,0,0-6.03-6.029,6.049,6.049,0,0,0-3.913,1.448,1.165,1.165,0,0,1-1.506,0,6,6,0,0,0-3.913-1.448A6.034,6.034,0,0,0-8511.6-2179.02Zm35.745,1.854c-.348-.672-.717-1.321-1.1-1.958a1.164,1.164,0,0,1,.4-1.586,1.163,1.163,0,0,1,1.585.394c.4.682.8,1.367,1.17,2.071a1.154,1.154,0,0,1-.488,1.564,1.187,1.187,0,0,1-.529.126A1.156,1.156,0,0,1-8475.857-2177.166Zm-72.27-.455a1.168,1.168,0,0,1-.863-.776,1.16,1.16,0,0,1,.746-1.46l1.972-.636a1.165,1.165,0,0,1,1.464.75,1.16,1.16,0,0,1-.75,1.46l-1.972.637a1.188,1.188,0,0,1-.349.052A1.176,1.176,0,0,1-8548.127-2177.621Zm35.449-13.852a1.16,1.16,0,0,1-1.158-1.157,1.161,1.161,0,0,1,1.158-1.16h1.4a1.162,1.162,0,0,1,1.156,1.16,1.162,1.162,0,0,1-1.156,1.157Z" transform="translate(13699 4121.001)"></path></g></svg>