<svg xmlns="http://www.w3.org/2000/svg" xmlns:xlink="http://www.w3.org/1999/xlink" viewBox="0 0 90 90"><defs><style>      .cls-1 {        fill: none;      }      .cls-2 {        fill: url(#linear-gradient);      }    </style><linearGradient id="linear-gradient" x2="0.776" y2="0.855" gradientUnits="objectBoundingBox"><stop offset="0" stop-color="#ffd200"></stop><stop offset="1" stop-color="#ff2e3a"></stop></linearGradient></defs><g id="f6-3-color" transform="translate(-5351 -1917)"><rect id="Rectangle_3332" data-name="Rectangle 3332" class="cls-1" width="90" height="90" transform="translate(5351 1917)"></rect><g id="Group_3344" data-name="Group 3344" transform="translate(4356 385.001)"><path id="Union_23" data-name="Union 23" class="cls-2" d="M37.8,86.636A44.019,44.019,0,0,1,20.277,5.992L15.3,3.5a1.159,1.159,0,1,1,1.031-2.077l6.5,3.256a1.143,1.143,0,0,1,.937.584,1.157,1.157,0,0,1-.43,1.58,41.7,41.7,0,0,0,14.787,77.5,1.161,1.161,0,0,1-.165,2.311A.728.728,0,0,1,37.8,86.636Zm33.876-1.949L64.906,81.3a1.178,1.178,0,0,1-.523-1.558c.014-.023.025-.045.038-.067a1.184,1.184,0,0,1,.476-.536A41.7,41.7,0,0,0,52.768,2.3,1.164,1.164,0,0,1,53.255.027a44.023,44.023,0,0,1,14.48,80.1L72.7,82.61a1.171,1.171,0,0,1,.523,1.555,1.13,1.13,0,0,1-1.032.65A1.1,1.1,0,0,1,71.672,84.687ZM42.521,56.581a1.177,1.177,0,0,1-.651-1.51l9.019-22.549a1.161,1.161,0,1,1,2.157.859L44.029,55.93a1.179,1.179,0,0,1-1.08.731A1.14,1.14,0,0,1,42.521,56.581ZM61.3,51.151A30.4,30.4,0,0,1,63.118,44.2a24.126,24.126,0,0,1,3.688-6.279h-7.7V35.8h11.1V37.57q-1.163,1.448-2.146,2.895a26.557,26.557,0,0,0-1.772,3.058A22.167,22.167,0,0,0,64.938,47a28.34,28.34,0,0,0-.885,4.154Zm-26.491,0V47.513h-6.7V45.176L34.946,35.8H37.4V45.41h2.146v2.1H37.4v3.638Zm-3.9-5.74h3.9V39.881Zm-15.424,5.74V49.263a3.419,3.419,0,0,1,.583-1.974,6.863,6.863,0,0,1,1.468-1.539,19.2,19.2,0,0,1,1.9-1.295c.676-.4,1.312-.814,1.9-1.224a7.691,7.691,0,0,0,1.473-1.308,2.371,2.371,0,0,0,.583-1.574,2.614,2.614,0,0,0-.689-1.984,2.334,2.334,0,0,0-1.666-.654,2.564,2.564,0,0,0-1.985.84,3.65,3.65,0,0,0-.861,2.311h-2.78a7.03,7.03,0,0,1,.6-2.17,5.437,5.437,0,0,1,1.176-1.67,5.1,5.1,0,0,1,1.706-1.061,5.963,5.963,0,0,1,2.148-.372,5.868,5.868,0,0,1,2.179.372,4.582,4.582,0,0,1,1.577,1,4.254,4.254,0,0,1,.955,1.446,4.491,4.491,0,0,1,.327,1.679,4.179,4.179,0,0,1-.43,1.949,5.561,5.561,0,0,1-1.136,1.494,10.469,10.469,0,0,1-1.563,1.228q-.86.558-1.7,1.154a17.049,17.049,0,0,0-1.587,1.272,5.278,5.278,0,0,0-1.189,1.561h7.606v2.4Z" transform="translate(996 1533.999)"></path></g></g></svg>