<svg xmlns="http://www.w3.org/2000/svg" xmlns:xlink="http://www.w3.org/1999/xlink" viewBox="0 0 90 90"><defs><style>      .cls-1 {        fill: none;      }      .cls-2 {        fill: url(#linear-gradient);      }    </style><linearGradient id="linear-gradient" x2="0.776" y2="0.855" gradientUnits="objectBoundingBox"><stop offset="0" stop-color="#ffd200"></stop><stop offset="1" stop-color="#ff2e3a"></stop></linearGradient></defs><g id="f6-4-color" transform="translate(-5140 -2035)"><rect id="Rectangle_3331" data-name="Rectangle 3331" class="cls-1" width="90" height="90" transform="translate(5140 2035)"></rect><path id="Union_40" data-name="Union 40" class="cls-2" d="M-8518.919-2111a4.8,4.8,0,0,1-4.8-4.8v-7.576a4.8,4.8,0,0,1,4.8-4.8h8.77v-13.072a3.106,3.106,0,0,1,3.1-3.1h12.144v-45.209h-35.715v51.508a6.789,6.789,0,0,1,4.771,6.478v8.839a6.8,6.8,0,0,1-6.78,6.781h-8.839a6.786,6.786,0,0,1-6.783-6.781v-7.677a1,1,0,0,1-.009-.133,1,1,0,0,1,.009-.133v-.9a6.786,6.786,0,0,1,6.783-6.781h8.808v-52.223a1.023,1.023,0,0,1,1.02-1.02h37.757a1.023,1.023,0,0,1,1.02,1.02v46.227h2.008a3.079,3.079,0,0,1,1.952.694l7.9-32.2-9.154-2.214a1.02,1.02,0,0,1-.757-1.232,1.022,1.022,0,0,1,1.233-.756l10.147,2.457a1,1,0,0,1,.63.46,1.025,1.025,0,0,1,.123.775l-8.972,36.576v7.961h8.778a4.8,4.8,0,0,1,4.8,4.8v7.576a4.8,4.8,0,0,1-4.8,4.8h-12.795a4.773,4.773,0,0,1-2.632-.786h-6.926a4.805,4.805,0,0,1-4.79,4.436Zm-2.762-4.793a2.765,2.765,0,0,0,2.762,2.763h12.8a2.765,2.765,0,0,0,2.765-2.763v-2.772h-18.322Zm29.905-.9h12.795a2.768,2.768,0,0,0,2.765-2.764v-2.763h-18.323v2.763a2.759,2.759,0,0,0,.949,2.083,1.023,1.023,0,0,1,.3.232A2.757,2.757,0,0,0-8491.775-2116.688Zm-4.376-.786a4.748,4.748,0,0,1-.427-1.978v-2.763h-4.74v4.741Zm-45.331-.521h8.84a4.746,4.746,0,0,0,4.714-4.22h-18.266A4.746,4.746,0,0,0-8541.482-2118Zm38.124-2.61v-2.763a2.765,2.765,0,0,0-2.765-2.761h-12.8a2.764,2.764,0,0,0-2.762,2.761v2.763Zm27.143-3.65v-2.772a2.767,2.767,0,0,0-2.765-2.763h-12.795a2.745,2.745,0,0,0-1.51.449,1.047,1.047,0,0,1-.3.228,2.756,2.756,0,0,0-.952,2.085v2.772Zm-20.362,0v-2.772a4.757,4.757,0,0,1,.427-1.979h-11.958v.828h1.986a4.807,4.807,0,0,1,4.725,3.924Zm-31.321,0v-5.271h-18.323v5.271Zm33.492-6.79a4.786,4.786,0,0,1,2.632-.784h1.977v-3.968h-18.311v4.752Zm-33.492-.519v-.011a4.746,4.746,0,0,0-4.743-4.741h-8.84a4.744,4.744,0,0,0-4.74,4.741v.011Zm38.1-6.271v-3.416a1.057,1.057,0,0,0-1.061-1.06h-16.191a1.058,1.058,0,0,0-1.059,1.06v3.416Zm5.231-1.581a1.012,1.012,0,0,1-.418-1.375l12.611-23.646-5.1-2.722a1.02,1.02,0,0,1-.42-1.377,1.017,1.017,0,0,1,1.378-.418l6,3.2a1.013,1.013,0,0,1,.418,1.377l-13.093,24.542a1.013,1.013,0,0,1-.9.541A1.02,1.02,0,0,1-8484.567-2139.417Zm-52.122-.652-8.771-36.3a1.048,1.048,0,0,1,.123-.775,1.007,1.007,0,0,1,.634-.46l10.144-2.457a1.021,1.021,0,0,1,1.233.756,1.018,1.018,0,0,1-.753,1.232l-9.157,2.214,8.535,35.3a1.02,1.02,0,0,1-.756,1.233,1.028,1.028,0,0,1-.245.031A1.023,1.023,0,0,1-8536.689-2140.069Zm-4.363.234-13.092-24.542a1.011,1.011,0,0,1,.418-1.377l6-3.2a1.025,1.025,0,0,1,1.378.418,1.016,1.016,0,0,1-.418,1.377l-5.1,2.722,12.612,23.646a1.01,1.01,0,0,1-.418,1.375,1.02,1.02,0,0,1-.481.123A1,1,0,0,1-8541.053-2139.834Zm32.85-15.568-1.9-5.7h-4.724l-1.9,5.7a1.038,1.038,0,0,1-.979.692,1.306,1.306,0,0,1-.324-.05,1.011,1.011,0,0,1-.643-1.285l5.23-15.68a1.022,1.022,0,0,1,.969-.695,1.034,1.034,0,0,1,.971.695l5.228,15.68a1.018,1.018,0,0,1-.642,1.285,1,1,0,0,1-.327.055A1.009,1.009,0,0,1-8508.2-2155.4Zm-2.578-7.74-1.683-5.047-1.682,5.047Zm-13.245-14.9-2.263-2.906a1.022,1.022,0,0,1,0-1.255l2.263-2.905a1.07,1.07,0,0,1,1.612,0l2.263,2.905a1.027,1.027,0,0,1,0,1.255l-2.263,2.906a1.055,1.055,0,0,1-.807.387A1.024,1.024,0,0,1-8524.026-2178.039Zm-.174-3.539.971,1.246.967-1.246-.967-1.244Zm49.032-3.006v-2.61a1.025,1.025,0,0,1,1.021-1.021,1.024,1.024,0,0,1,1.02,1.021v2.61a1.016,1.016,0,0,1-1.02,1.018A1.022,1.022,0,0,1-8475.168-2184.584Zm-66.588-2.367a1.023,1.023,0,0,1-1.021-1.018,1.025,1.025,0,0,1,1.021-1.021h2.609a1.023,1.023,0,0,1,1.019,1.021,1.014,1.014,0,0,1-1.019,1.018Zm70.087-1.7a1.022,1.022,0,0,1-1.02-1.021,1.02,1.02,0,0,1,1.02-1.018h2.61a1.02,1.02,0,0,1,1.018,1.018,1.022,1.022,0,0,1-1.018,1.021Zm-7.565,0a1.023,1.023,0,0,1-1.02-1.021,1.021,1.021,0,0,1,1.02-1.018h2.609a1.021,1.021,0,0,1,1.02,1.018,1.023,1.023,0,0,1-1.02,1.021Zm-72.678-1.152v-2.612a1.022,1.022,0,0,1,1.019-1.019,1.024,1.024,0,0,1,1.021,1.019v2.612a1.018,1.018,0,0,1-1.021,1.018A1.021,1.021,0,0,1-8551.912-2189.8Zm76.744-2.345v-2.61a1.024,1.024,0,0,1,1.021-1.021,1.023,1.023,0,0,1,1.02,1.021v2.61a1.022,1.022,0,0,1-1.02,1.018A1.023,1.023,0,0,1-8475.168-2192.149Zm-73.246-1.724a1.023,1.023,0,0,1-1.02-1.02,1.023,1.023,0,0,1,1.02-1.021h2.609a1.023,1.023,0,0,1,1.02,1.021,1.015,1.015,0,0,1-1.02,1.02Zm-7.566,0a1.024,1.024,0,0,1-1.02-1.02,1.024,1.024,0,0,1,1.02-1.021h2.61a1.023,1.023,0,0,1,1.019,1.021,1.023,1.023,0,0,1-1.019,1.02Zm69.565-1.438a1.022,1.022,0,0,1-1.017-1.02,1.02,1.02,0,0,1,1.017-1.019h2.611a1.024,1.024,0,0,1,1.021,1.019,1.026,1.026,0,0,1-1.021,1.02Zm-65.5-2.061v-2.609a1.021,1.021,0,0,1,1.019-1.019,1.023,1.023,0,0,1,1.021,1.019v2.609a1.024,1.024,0,0,1-1.021,1.021A1.022,1.022,0,0,1-8551.912-2197.372Z" transform="translate(13698 4236)"></path></g></svg>